<svg width="34" height="40" viewBox="0 0 34 40" fill="none" xmlns="http://www.w3.org/2000/svg">
<g clip-path="url(#clip0_195_822)">
<path d="M30.8987 -4.26311e-05C31.0072 0.0437941 31.1137 0.0907621 31.2233 0.131468C32.4089 0.572966 33.1834 1.65114 33.1834 2.92032C33.1876 13.2188 33.1886 23.5173 33.1823 33.8158C33.1823 35.4096 31.9601 36.6517 30.3705 36.754C29.8894 36.7853 29.4082 36.7905 28.927 36.7905C23.6677 36.7905 18.4073 36.7905 13.1479 36.7905C12.7589 36.7905 12.5641 36.9829 12.5634 37.3677C12.5634 38.1223 12.5551 38.8779 12.5665 39.6326C12.5718 39.9478 12.4799 40.0511 12.1532 39.9582C11.2911 39.7119 10.4175 39.5021 9.55537 39.2537C9.19006 39.1483 8.84667 39.1483 8.48345 39.2516C7.65786 39.4864 6.82705 39.7025 5.99833 39.9259C5.49421 40.0615 5.48272 40.0532 5.48272 39.5115C5.48168 38.7694 5.46081 38.0263 5.49108 37.2852C5.50777 36.8771 5.35539 36.7738 4.97234 36.7811C4.25738 36.7947 3.54243 36.7988 2.82643 36.7519C1.24413 36.6485 0.0281794 35.4013 0.0208733 33.8064C0.00939224 31.3203 0.0177421 28.8331 0.0177421 26.3458C0.0177421 23.3389 0.0177421 20.3308 0.0177421 17.3238C0.0177421 16.7727 0.0198296 16.7686 0.545871 16.7706C1.34119 16.7748 1.30258 16.6736 1.30258 17.5305C1.30258 21.2545 1.30258 24.9775 1.30258 28.7016C1.30258 28.856 1.30258 29.0105 1.30258 29.2526C2.17514 28.6682 3.10302 28.7183 4.02359 28.7287C4.21459 28.7308 4.31896 28.6567 4.31061 28.4542C4.30644 28.3498 4.31061 28.2454 4.31061 28.1421C4.31061 19.3539 4.31061 10.5657 4.31061 1.77743C4.31061 1.39125 4.12135 1.19816 3.74282 1.19816C3.45684 1.19816 3.16773 1.17833 2.88383 1.21173C1.89855 1.3255 1.30362 2.00184 1.30258 3.00904C1.2984 6.95435 1.30049 10.8986 1.30049 14.8439C1.30049 15.7405 1.21595 15.8104 0.314162 15.7019C0.107503 15.6768 0.00730477 15.5912 0.0156546 15.3804C0.0208733 15.2635 0.0156546 15.1466 0.0156546 15.0287C0.0156546 11.1752 0.0500978 7.3207 -1.35362e-06 3.46724C-0.0229635 1.7242 0.706605 0.51243 2.30456 -4.26311e-05H21.289C21.3662 0.798761 21.011 1.19816 20.2234 1.19816C15.5234 1.19816 10.8225 1.19816 6.12253 1.19816C5.58919 1.19816 5.5871 1.19921 5.5871 1.74195C5.5871 10.5563 5.5871 19.3716 5.5871 28.1859C5.5871 28.7276 5.58919 28.7297 6.12462 28.7297C10.3173 28.7297 14.51 28.7297 18.7026 28.7297C19.0888 28.7297 19.2823 28.9235 19.283 29.3111C19.283 29.428 19.2756 29.5459 19.283 29.6628C19.2997 29.9112 19.1901 30.026 18.9406 30.0156C18.8112 30.0104 18.6807 30.0156 18.5503 30.0156C13.4067 30.0156 8.26427 30.0208 3.12076 30.0104C2.45173 30.0094 1.92986 30.2348 1.5562 30.788C1.38503 31.0426 1.30049 31.3245 1.30153 31.6344C1.30466 32.3504 1.29423 33.0664 1.30258 33.7824C1.31301 34.751 1.981 35.466 2.95376 35.5109C3.69481 35.5443 4.43795 35.5119 5.18004 35.5234C5.47124 35.5276 5.48168 35.3553 5.48064 35.1414C5.47751 34.1258 5.49316 33.1103 5.47229 32.0947C5.46498 31.7284 5.59962 31.625 5.94719 31.625C12.4705 31.6313 18.9938 31.6324 25.5172 31.624C25.9002 31.624 26.0109 31.7628 26.0015 32.1281C25.9795 33.0017 26.0547 32.912 25.2239 32.912C21.1742 32.9141 17.1256 32.912 13.0759 32.913C12.5634 32.913 12.5624 32.9141 12.5624 33.4307C12.5624 33.9901 12.5791 34.5506 12.5561 35.1101C12.5425 35.4441 12.674 35.5276 12.9872 35.5255C15.1487 35.515 17.3103 35.5203 19.4708 35.5203C22.9861 35.5203 26.5014 35.5203 30.0177 35.5203C30.6534 35.5203 31.194 35.323 31.5833 34.798C31.7827 34.5298 31.8965 34.2302 31.8965 33.892C31.8965 32.5383 31.8944 31.1835 31.9038 29.8298C31.9059 29.5501 31.8359 29.5219 31.598 29.6514C31.1084 29.9175 30.573 30.0146 30.0177 30.0146C27.0097 30.0146 24.0027 30.0146 20.9947 30.0146C20.429 30.0146 20.4258 30.0094 20.4227 29.453C20.4227 29.3883 20.4227 29.3226 20.4227 29.2579C20.4269 28.7433 20.4394 28.7287 20.9467 28.7287C23.9547 28.7287 26.9627 28.7005 29.9697 28.7433C30.9957 28.7579 31.9205 28.0858 31.9152 26.8218C31.885 18.9187 31.8871 11.0155 31.9142 3.11132C31.9184 1.92877 31.0677 1.17937 29.9916 1.18877C27.6349 1.20964 25.2782 1.19503 22.9214 1.19503C22.3724 1.19503 22.3714 1.19294 22.3703 0.66064C22.3703 0.439369 22.3776 0.218097 22.3818 -0.00317383C25.2218 -4.26311e-05 28.0607 -4.26311e-05 30.8987 -4.26311e-05ZM6.70911 35.6601C6.70911 36.4534 6.71642 37.2476 6.70494 38.0409C6.70076 38.3112 6.76234 38.4511 7.05563 38.3331C8.3509 37.8102 9.64617 37.7768 10.9456 38.3227C11.1951 38.4271 11.2869 38.3154 11.2859 38.0482C11.2775 36.4607 11.2786 34.8742 11.2838 33.2867C11.2838 33.0289 11.2066 32.9099 10.9268 32.912C9.63887 32.9214 8.3509 32.9214 7.06294 32.912C6.78739 32.9099 6.70076 33.0143 6.70494 33.2804C6.71642 34.0736 6.70911 34.8679 6.70911 35.6612V35.6601Z" fill="black"/>
<path d="M18.712 8.02106C22.5519 8.02106 26.3908 8.02106 30.2307 8.02106C30.764 8.02106 30.7661 8.02315 30.7661 8.56485C30.7661 12.6124 30.7661 16.66 30.7661 20.7087C30.7661 21.2483 30.7598 21.2566 30.2234 21.2566C22.5446 21.2566 14.8648 21.2566 7.1861 21.2566C6.6611 21.2566 6.6538 21.2483 6.6538 20.741C6.6538 16.6673 6.65901 12.5937 6.64545 8.51997C6.6444 8.12335 6.76234 8.01271 7.15479 8.0148C11.0072 8.02837 14.8596 8.02315 18.712 8.02315V8.02106ZM18.6713 19.977C22.1083 19.977 25.5443 19.9708 28.9813 19.9854C29.3727 19.9875 29.4938 19.8799 29.4928 19.4812C29.4781 16.2405 29.4844 12.9986 29.4844 9.75679C29.4844 9.24745 29.4823 9.2464 28.9594 9.2464C22.0989 9.2464 15.2395 9.24953 8.37909 9.23805C7.98351 9.23805 7.87183 9.34451 7.87392 9.74113C7.88958 12.9819 7.88227 16.2238 7.88227 19.4656C7.88227 19.8058 8.05518 19.9763 8.401 19.977C11.8244 19.977 15.2479 19.977 18.6713 19.977Z" fill="black"/>
<path d="M27.6965 32.9152C27.2651 32.9152 27.0494 32.7044 27.0494 32.2827C27.0494 31.8492 27.2616 31.6324 27.686 31.6324C28.1105 31.6324 28.3272 31.8454 28.3363 32.2712C28.3453 32.6971 28.1324 32.9117 27.6975 32.9152H27.6965Z" fill="black"/>
<path d="M11.7524 14.7104V15.0653C11.7044 15.4754 11.5426 15.7938 11.2671 16.0203C11.05 16.1988 10.7891 16.2885 10.4853 16.2885C10.1816 16.2885 9.89876 16.1706 9.66809 15.9336C9.48961 15.7499 9.39985 15.5506 9.39985 15.3335C9.39985 15.3241 9.39777 15.3147 9.39255 15.3043L9.45726 15.1884L9.57311 15.131H9.73907L9.833 15.2103L9.86953 15.2677C9.87893 15.3158 9.92694 15.393 10.0146 15.4994C10.1545 15.6779 10.3089 15.7677 10.478 15.7677C10.6471 15.7677 10.8016 15.6998 10.9414 15.5652C11.0667 15.4441 11.1293 15.249 11.1293 14.9786C11.1293 14.7615 11.074 14.5757 10.9634 14.4213C10.8569 14.272 10.6836 14.1969 10.4425 14.1969C10.2975 14.1969 10.1628 14.2136 10.0376 14.248C9.97495 14.2626 9.92903 14.2741 9.8998 14.2845C9.89458 14.3044 9.87371 14.2992 9.83509 14.2699L9.76307 14.1687V14.0236L9.78499 13.8639L9.86432 13.7627C10.0334 13.7147 10.2338 13.6907 10.4645 13.6907C10.8987 13.6907 11.2243 13.8086 11.4414 14.0455C11.5906 14.2094 11.6825 14.342 11.7159 14.4432C11.7399 14.5204 11.7524 14.6091 11.7524 14.7114V14.7104ZM12.0488 15.0934V13.7188L12.1647 13.5811L12.3818 13.5164L12.6208 13.5738L12.7221 13.7188V16.3678H13.0112L13.0905 16.4325L13.1343 16.563L13.1051 16.729L13.0112 16.801H12.0488V15.0934Z" fill="#231F20"/>
<path d="M13.2147 17.8081C13.2147 18.0492 13.126 18.2444 12.9465 18.3947C12.7534 18.5585 12.4997 18.641 12.1866 18.641C12.1334 18.641 12.0541 18.6358 11.9476 18.6264C11.5468 18.5784 11.1418 18.3394 10.7317 17.9104L10.717 17.7079L10.7818 17.5847L10.9122 17.5127L11.0782 17.52C11.1648 17.6213 11.2587 17.711 11.36 17.7883C11.5823 17.972 11.7723 18.0701 11.9319 18.0847H12.171C12.267 18.0701 12.3494 18.0388 12.4173 17.9907C12.5237 17.9187 12.577 17.829 12.577 17.7225C12.577 17.448 12.4298 17.3102 12.1355 17.3102C11.9904 17.3102 11.8484 17.3676 11.7086 17.4835L11.6 17.4762L11.4842 17.4689L11.3756 17.3676L11.3318 17.2518L11.3464 17.0994L11.3829 17.0128C11.5948 16.8729 11.8631 16.803 12.1866 16.803C12.4903 16.803 12.7367 16.8948 12.9245 17.0775C13.1176 17.2654 13.2136 17.5096 13.2136 17.8081H13.2147Z" fill="#231F20"/>
<path d="M16.3845 16.7362C16.2833 16.7937 16.1799 16.8229 16.0735 16.8229H16.0369C15.8345 16.8135 15.6727 16.7362 15.5516 16.5912C15.4264 16.4419 15.3637 16.2415 15.3637 15.991C15.3637 15.8272 15.4211 15.6288 15.537 15.3971C15.6195 15.2281 15.6769 15.132 15.7103 15.108L15.681 15.0287C15.6236 14.9327 15.4932 14.7657 15.2907 14.5298C14.9723 14.1488 14.7187 13.9578 14.5308 13.9578C14.3962 13.9578 14.2897 14.0152 14.2125 14.1311C14.1353 14.2522 14.0966 14.3816 14.0966 14.5214C14.0966 14.7093 14.1614 14.8544 14.2918 14.9556C14.3743 15.0235 14.4651 15.0569 14.5663 15.0569C14.6582 15.0569 14.75 15.0277 14.8408 14.9702C14.9233 14.9222 14.9619 14.893 14.9567 14.8836L15.0506 14.8617L15.1373 14.941L15.1665 15.1143L15.0872 15.3022L14.9567 15.4253L14.8189 15.5119C14.7271 15.56 14.6185 15.584 14.4933 15.584C14.2616 15.584 14.0497 15.5015 13.8566 15.3376C13.6155 15.1352 13.4944 14.8596 13.4944 14.5131C13.4944 14.1854 13.5831 13.9244 13.7627 13.7313C13.9359 13.5289 14.1676 13.4276 14.4578 13.4276C14.7479 13.4276 15.0339 13.5382 15.3189 13.7606C15.5213 13.915 15.7144 14.1196 15.8981 14.3753C16.038 14.5632 16.1079 14.677 16.1079 14.7156L17.1433 13.4568L17.3604 13.4495L17.5702 13.5289L17.6714 13.7313L17.6422 13.8973L17.5556 14.0205L16.419 15.1706C16.4482 15.1947 16.5014 15.2938 16.5786 15.4671C16.6653 15.6602 16.7091 15.824 16.7091 15.9587V16.0025C16.7091 16.1622 16.6653 16.3407 16.5786 16.5379C16.5452 16.6204 16.4795 16.6851 16.3835 16.7331L16.3845 16.7362ZM16.0443 15.5641C16.1309 15.6028 16.1966 15.7207 16.2394 15.919C16.2728 16.0787 16.2582 16.1893 16.1956 16.252C16.0996 16.348 15.9973 16.3532 15.8919 16.2666C15.8585 16.2373 15.8439 16.1413 15.848 15.9775C15.848 15.92 15.8668 15.8522 15.9054 15.775C15.9775 15.6257 16.0234 15.5558 16.0432 15.5652L16.0443 15.5641Z" fill="#231F20"/>
<path d="M20.907 16.7727L20.8277 16.802H19.3581C19.2715 16.802 19.2036 16.78 19.1556 16.7372C19.1118 16.6934 19.0732 16.6141 19.0398 16.4982L18.8227 15.5432H18.4396L18.3457 15.5067L18.3018 15.4201L18.2799 15.2823L18.3018 15.1163L18.353 15.0516L18.4323 15.0224H19.6984C19.833 15.0224 19.9541 14.989 20.0605 14.9212C20.2056 14.8345 20.2776 14.6988 20.2776 14.5162C20.2776 14.1978 20.0825 14.0382 19.6911 14.0382H18.497L18.4104 13.9077L18.3885 13.7553L18.4459 13.5894L18.5033 13.5173H19.9436C20.1994 13.5173 20.4165 13.6113 20.5949 13.7991C20.7786 13.987 20.8694 14.2239 20.8694 14.5078V14.7395C20.812 15.0245 20.621 15.2384 20.2975 15.3835C20.2536 15.4034 20.2129 15.4201 20.1743 15.4347C19.9718 15.4973 19.7328 15.5338 19.4583 15.5432L19.5961 16.1152L19.6253 16.2091C19.6305 16.229 19.6493 16.2477 19.6827 16.2665C19.6973 16.2759 19.7286 16.2811 19.7766 16.2811H20.812L20.9133 16.3031L20.978 16.3678V16.708L20.906 16.7727H20.907Z" fill="#231F20"/>
<path d="M22.3035 16.802H21.7827L21.79 13.6969L21.862 13.5883L21.9633 13.509L22.101 13.4944L22.2169 13.509L22.34 13.5956L22.3839 13.6969V16.3667H22.7607L22.8327 16.4388L22.8546 16.5765L22.8327 16.7216L22.7607 16.8009H22.3046L22.3035 16.802Z" fill="#231F20"/>
<path d="M25.6831 14.7104H24.8293C24.6363 14.7104 24.4818 14.7751 24.3659 14.9055C24.2355 15.0506 24.1708 15.2479 24.1708 15.4994C24.1708 16.0056 24.439 16.2593 24.9744 16.2593C25.0078 16.2593 25.0371 16.2572 25.0611 16.252L25.1623 16.2739L25.2343 16.3532L25.2562 16.5265L25.2051 16.6715L25.1185 16.7509L24.9734 16.7874C24.8961 16.8062 24.7657 16.7968 24.583 16.7582C24.3127 16.7008 24.0914 16.5849 23.9171 16.4106C23.6854 16.1695 23.5696 15.8293 23.5696 15.3898C23.5696 15.0621 23.6729 14.7793 23.8806 14.5434C24.0883 14.3075 24.3367 14.1885 24.6258 14.1885L25.6675 14.1812L25.6821 14.7093L25.6831 14.7104ZM26.1612 16.8166H25.6403L25.6476 13.7115L25.7197 13.603L25.8209 13.5236L25.9587 13.509L26.0745 13.5236L26.1977 13.6103L26.2415 13.7115V16.3814H26.6183L26.6903 16.4534L26.7122 16.5912L26.6903 16.7363L26.6183 16.8156H26.1622L26.1612 16.8166Z" fill="#231F20"/>
<path d="M27.876 16.802H27.3113L27.3187 13.7553C27.3187 13.4558 27.2612 13.176 27.1454 12.9162C26.9909 12.5686 26.7832 12.3901 26.5233 12.3807C26.2624 12.3661 26.133 12.5039 26.133 12.793C26.133 12.9141 26.1591 13.0612 26.2123 13.2345L26.133 13.3284L25.9451 13.3723L25.8146 13.3149L25.6696 13.2355C25.5443 13.0957 25.4817 12.9245 25.4817 12.722V12.65C25.4963 12.1052 25.8021 11.8328 26.4012 11.8328C26.7874 11.8328 27.1537 12.0499 27.5013 12.4841C27.8395 12.8942 28.0075 13.319 28.0075 13.7574L28.0148 16.3699H28.5576L28.6296 16.4419L28.6515 16.5797L28.6296 16.7247L28.5576 16.8041H27.877L27.876 16.802Z" fill="#231F20"/>
</g>
<defs>
<clipPath id="clip0_195_822">
<rect width="33.1876" height="40" fill="white"/>
</clipPath>
</defs>
</svg>
