<svg width="34" height="40" viewBox="0 0 34 40" fill="none" xmlns="http://www.w3.org/2000/svg">
<g clip-path="url(#clip0_195_821)">
<path d="M30.8987 -4.26311e-05C31.0072 0.0437941 31.1137 0.0907621 31.2233 0.131468C32.4089 0.572966 33.1834 1.65114 33.1834 2.92032C33.1876 13.2188 33.1886 23.5173 33.1823 33.8158C33.1823 35.4096 31.9601 36.6517 30.3705 36.754C29.8894 36.7853 29.4082 36.7905 28.927 36.7905C23.6677 36.7905 18.4073 36.7905 13.1479 36.7905C12.7589 36.7905 12.5641 36.9829 12.5634 37.3677C12.5634 38.1223 12.5551 38.8779 12.5665 39.6326C12.5718 39.9478 12.4799 40.0511 12.1532 39.9582C11.2911 39.7119 10.4175 39.5021 9.55537 39.2537C9.19006 39.1483 8.84667 39.1483 8.48345 39.2516C7.65786 39.4864 6.82705 39.7025 5.99833 39.9259C5.49421 40.0615 5.48272 40.0532 5.48272 39.5115C5.48168 38.7694 5.46081 38.0263 5.49108 37.2852C5.50777 36.8771 5.35539 36.7738 4.97234 36.7811C4.25738 36.7947 3.54243 36.7988 2.82643 36.7519C1.24413 36.6485 0.0281794 35.4013 0.0208733 33.8064C0.00939224 31.3203 0.0177421 28.8331 0.0177421 26.3458C0.0177421 23.3389 0.0177421 20.3308 0.0177421 17.3238C0.0177421 16.7727 0.0198296 16.7686 0.545871 16.7706C1.34119 16.7748 1.30258 16.6736 1.30258 17.5305C1.30258 21.2545 1.30258 24.9775 1.30258 28.7016C1.30258 28.856 1.30258 29.0105 1.30258 29.2526C2.17514 28.6682 3.10302 28.7183 4.02359 28.7287C4.21459 28.7308 4.31896 28.6567 4.31061 28.4542C4.30644 28.3498 4.31061 28.2454 4.31061 28.1421C4.31061 19.3539 4.31061 10.5657 4.31061 1.77743C4.31061 1.39125 4.12135 1.19816 3.74282 1.19816C3.45684 1.19816 3.16773 1.17833 2.88383 1.21173C1.89855 1.3255 1.30362 2.00184 1.30258 3.00904C1.2984 6.95435 1.30049 10.8986 1.30049 14.8439C1.30049 15.7405 1.21595 15.8104 0.314162 15.7019C0.107503 15.6768 0.00730477 15.5912 0.0156546 15.3804C0.0208733 15.2635 0.0156546 15.1466 0.0156546 15.0287C0.0156546 11.1752 0.0500978 7.3207 -1.35362e-06 3.46724C-0.0229635 1.7242 0.706605 0.51243 2.30456 -4.26311e-05H21.289C21.3662 0.798761 21.011 1.19816 20.2234 1.19816C15.5234 1.19816 10.8225 1.19816 6.12253 1.19816C5.58919 1.19816 5.5871 1.19921 5.5871 1.74195C5.5871 10.5563 5.5871 19.3716 5.5871 28.1859C5.5871 28.7276 5.58919 28.7297 6.12462 28.7297C10.3173 28.7297 14.51 28.7297 18.7026 28.7297C19.0888 28.7297 19.2823 28.9235 19.283 29.3111C19.283 29.428 19.2756 29.5459 19.283 29.6628C19.2997 29.9112 19.1901 30.026 18.9406 30.0156C18.8112 30.0104 18.6807 30.0156 18.5503 30.0156C13.4067 30.0156 8.26427 30.0208 3.12076 30.0104C2.45173 30.0094 1.92986 30.2348 1.5562 30.788C1.38503 31.0426 1.30049 31.3245 1.30153 31.6344C1.30466 32.3504 1.29423 33.0664 1.30258 33.7824C1.31301 34.751 1.981 35.466 2.95376 35.5109C3.69481 35.5443 4.43795 35.5119 5.18004 35.5234C5.47124 35.5276 5.48168 35.3553 5.48064 35.1414C5.47751 34.1258 5.49316 33.1103 5.47229 32.0947C5.46498 31.7284 5.59962 31.625 5.94719 31.625C12.4705 31.6313 18.9938 31.6324 25.5172 31.624C25.9002 31.624 26.0109 31.7628 26.0015 32.1281C25.9795 33.0017 26.0547 32.912 25.2239 32.912C21.1742 32.9141 17.1256 32.912 13.0759 32.913C12.5634 32.913 12.5624 32.9141 12.5624 33.4307C12.5624 33.9901 12.5791 34.5506 12.5561 35.1101C12.5425 35.4441 12.674 35.5276 12.9872 35.5255C15.1487 35.515 17.3103 35.5203 19.4708 35.5203C22.9861 35.5203 26.5014 35.5203 30.0177 35.5203C30.6534 35.5203 31.194 35.323 31.5833 34.798C31.7827 34.5298 31.8965 34.2302 31.8965 33.892C31.8965 32.5383 31.8944 31.1835 31.9038 29.8298C31.9059 29.5501 31.8359 29.5219 31.598 29.6514C31.1084 29.9175 30.573 30.0146 30.0177 30.0146C27.0097 30.0146 24.0027 30.0146 20.9947 30.0146C20.429 30.0146 20.4258 30.0094 20.4227 29.453C20.4227 29.3883 20.4227 29.3226 20.4227 29.2579C20.4269 28.7433 20.4394 28.7287 20.9467 28.7287C23.9547 28.7287 26.9627 28.7005 29.9697 28.7433C30.9957 28.7579 31.9205 28.0858 31.9152 26.8218C31.885 18.9187 31.8871 11.0155 31.9142 3.11132C31.9184 1.92877 31.0677 1.17937 29.9916 1.18877C27.6349 1.20964 25.2782 1.19503 22.9214 1.19503C22.3724 1.19503 22.3714 1.19294 22.3703 0.66064C22.3703 0.439369 22.3776 0.218097 22.3818 -0.00317383C25.2218 -4.26311e-05 28.0607 -4.26311e-05 30.8987 -4.26311e-05ZM6.70911 35.6601C6.70911 36.4534 6.71642 37.2476 6.70494 38.0409C6.70076 38.3112 6.76234 38.4511 7.05563 38.3331C8.3509 37.8102 9.64617 37.7768 10.9456 38.3227C11.1951 38.4271 11.2869 38.3154 11.2859 38.0482C11.2775 36.4607 11.2786 34.8742 11.2838 33.2867C11.2838 33.0289 11.2066 32.9099 10.9268 32.912C9.63887 32.9214 8.3509 32.9214 7.06294 32.912C6.78739 32.9099 6.70076 33.0143 6.70494 33.2804C6.71642 34.0736 6.70911 34.8679 6.70911 35.6612V35.6601Z" fill="black"/>
<path d="M18.712 8.02106C22.5519 8.02106 26.3908 8.02106 30.2307 8.02106C30.764 8.02106 30.7661 8.02315 30.7661 8.56485C30.7661 12.6124 30.7661 16.66 30.7661 20.7087C30.7661 21.2483 30.7598 21.2566 30.2234 21.2566C22.5446 21.2566 14.8648 21.2566 7.1861 21.2566C6.6611 21.2566 6.6538 21.2483 6.6538 20.741C6.6538 16.6673 6.65901 12.5937 6.64545 8.51997C6.6444 8.12335 6.76234 8.01271 7.15479 8.0148C11.0072 8.02837 14.8596 8.02315 18.712 8.02315V8.02106ZM18.6713 19.977C22.1083 19.977 25.5443 19.9708 28.9813 19.9854C29.3727 19.9875 29.4938 19.8799 29.4928 19.4812C29.4781 16.2405 29.4844 12.9986 29.4844 9.75679C29.4844 9.24745 29.4823 9.2464 28.9594 9.2464C22.0989 9.2464 15.2395 9.24953 8.37909 9.23805C7.98351 9.23805 7.87183 9.34451 7.87392 9.74113C7.88958 12.9819 7.88227 16.2238 7.88227 19.4656C7.88227 19.8058 8.05518 19.9763 8.401 19.977C11.8244 19.977 15.2479 19.977 18.6713 19.977Z" fill="black"/>
<path d="M27.6965 32.9152C27.2651 32.9152 27.0494 32.7044 27.0494 32.2827C27.0494 31.8492 27.2616 31.6324 27.686 31.6324C28.1105 31.6324 28.3272 31.8454 28.3363 32.2712C28.3453 32.6971 28.1324 32.9117 27.6975 32.9152H27.6965Z" fill="black"/>
<path d="M15.5213 13.197C15.5213 14.6926 15.5255 16.1883 15.5172 17.685C15.5161 17.8927 15.632 18.1902 15.3888 18.2904C15.0642 18.424 14.6968 18.3927 14.3534 18.2956C14.2167 18.257 14.2386 18.1046 14.2386 17.9908C14.2365 15.6466 14.2386 13.3034 14.2355 10.9592C14.2355 10.7108 14.3357 10.5949 14.5841 10.6095C14.5966 10.6095 14.6102 10.6106 14.6227 10.6095C15.2489 10.502 15.632 10.7411 15.9628 11.3109C16.8323 12.8066 17.781 14.2553 18.783 15.7176C18.783 15.5881 18.783 15.4577 18.783 15.3283C18.783 13.9224 18.7945 12.5154 18.7757 11.1095C18.7705 10.716 18.8978 10.5845 19.2934 10.5981C20.1597 10.6262 20.0616 10.5427 20.0626 11.3892C20.0658 13.5247 20.0543 15.6602 20.072 17.7956C20.0751 18.1964 19.9363 18.2841 19.5564 18.3133C19.0011 18.3561 18.6891 18.1547 18.4073 17.6777C17.5932 16.2989 16.7248 14.9536 15.8762 13.5957C15.7875 13.4537 15.6925 13.3149 15.6007 13.175C15.5746 13.1834 15.5474 13.1917 15.5213 13.199V13.197Z" fill="black"/>
<path d="M26.8792 13.8096C27.3218 13.8096 27.7643 13.8117 28.2069 13.8096C28.3968 13.8086 28.5221 13.8545 28.5586 14.0778C28.8049 15.5829 27.9188 17.3364 26.5807 17.971C24.4995 18.9573 21.9153 17.6829 21.3777 15.3836C21.0218 13.8587 21.4101 12.5269 22.6271 11.5228C23.8378 10.5229 25.2114 10.3079 26.6841 10.9133C26.8271 10.9717 26.9596 11.0594 27.0974 11.1324C27.2592 11.218 27.2884 11.3318 27.1757 11.48C27.1444 11.5217 27.1183 11.5666 27.0901 11.6105C26.8152 12.0287 26.4457 12.1546 25.9816 11.9883C24.9953 11.6355 23.7741 11.9883 23.0936 12.8243C22.4319 13.6374 22.3338 14.8732 22.8619 15.7541C23.4182 16.682 24.5622 17.1997 25.608 16.9972C26.3532 16.8531 27.0327 16.1309 27.1684 15.3679C27.2111 15.1289 27.0943 15.0976 26.9147 15.0976C26.4722 15.0976 26.0296 15.083 25.5881 15.1007C25.2615 15.1143 25.1581 14.9807 25.1654 14.6644C25.1884 13.6927 25.0611 13.8221 26.0223 13.8107C26.3083 13.8075 26.5953 13.8107 26.8813 13.8107L26.8792 13.8096Z" fill="black"/>
<path d="M9.3174 14.4557C9.3174 13.3368 9.32784 12.2169 9.31114 11.098C9.30592 10.7348 9.40821 10.5855 9.79439 10.596C10.6262 10.62 11.4602 10.6137 12.2931 10.5981C12.6177 10.5918 12.7273 10.7139 12.721 11.0322C12.7022 11.9768 12.8056 11.8829 11.8965 11.8892C11.5844 11.8912 11.2713 11.8975 10.9592 11.8881C10.7202 11.8808 10.5939 11.956 10.6012 12.22C10.6127 12.649 10.6095 13.079 10.6033 13.508C10.6002 13.7251 10.6962 13.8107 10.9091 13.8075C11.3255 13.8013 11.742 13.8117 12.1584 13.8075C12.3849 13.8044 12.4904 13.8942 12.4883 14.13C12.4799 15.2646 12.601 15.0819 11.5854 15.0924C10.6033 15.1018 10.6033 15.0945 10.6033 16.086C10.6033 16.7032 10.9126 17.0118 11.5312 17.0118C11.8171 17.0118 12.1042 17.0181 12.3902 17.0118C12.6229 17.0076 12.7022 17.1193 12.7168 17.3447C12.7816 18.2987 12.7868 18.2987 11.8359 18.2987C11.146 18.2987 10.4561 18.2862 9.76725 18.3039C9.43221 18.3123 9.30592 18.1964 9.3101 17.8541C9.32575 16.7216 9.31532 15.5902 9.31532 14.4578L9.3174 14.4557Z" fill="black"/>
</g>
<defs>
<clipPath id="clip0_195_821">
<rect width="33.1876" height="40" fill="white"/>
</clipPath>
</defs>
</svg>
