<svg width="34" height="40" viewBox="0 0 34 40" fill="none" xmlns="http://www.w3.org/2000/svg">
<g clip-path="url(#clip0_195_834)">
<path d="M30.8987 -4.26311e-05C31.0072 0.0437941 31.1137 0.0907621 31.2233 0.131468C32.4089 0.572966 33.1834 1.65114 33.1834 2.92032C33.1876 13.2188 33.1886 23.5173 33.1823 33.8158C33.1823 35.4096 31.9601 36.6517 30.3705 36.754C29.8894 36.7853 29.4082 36.7905 28.927 36.7905C23.6677 36.7905 18.4073 36.7905 13.1479 36.7905C12.7589 36.7905 12.5641 36.9829 12.5634 37.3677C12.5634 38.1223 12.5551 38.8779 12.5665 39.6326C12.5718 39.9478 12.4799 40.0511 12.1532 39.9582C11.2911 39.7119 10.4175 39.5021 9.55537 39.2537C9.19006 39.1483 8.84667 39.1483 8.48345 39.2516C7.65786 39.4864 6.82705 39.7025 5.99833 39.9259C5.49421 40.0615 5.48272 40.0532 5.48272 39.5115C5.48168 38.7694 5.46081 38.0263 5.49108 37.2852C5.50777 36.8771 5.35539 36.7738 4.97234 36.7811C4.25738 36.7947 3.54243 36.7988 2.82643 36.7519C1.24413 36.6485 0.0281794 35.4013 0.0208733 33.8064C0.00939224 31.3203 0.0177421 28.8331 0.0177421 26.3458C0.0177421 23.3389 0.0177421 20.3308 0.0177421 17.3238C0.0177421 16.7727 0.0198296 16.7686 0.545871 16.7706C1.34119 16.7748 1.30258 16.6736 1.30258 17.5305C1.30258 21.2545 1.30258 24.9775 1.30258 28.7016C1.30258 28.856 1.30258 29.0105 1.30258 29.2526C2.17514 28.6682 3.10302 28.7183 4.02359 28.7287C4.21459 28.7308 4.31896 28.6567 4.31061 28.4542C4.30644 28.3498 4.31061 28.2454 4.31061 28.1421C4.31061 19.3539 4.31061 10.5657 4.31061 1.77743C4.31061 1.39125 4.12135 1.19816 3.74282 1.19816C3.45684 1.19816 3.16773 1.17833 2.88383 1.21173C1.89855 1.3255 1.30362 2.00184 1.30258 3.00904C1.2984 6.95435 1.30049 10.8986 1.30049 14.8439C1.30049 15.7405 1.21595 15.8104 0.314162 15.7019C0.107503 15.6768 0.00730477 15.5912 0.0156546 15.3804C0.0208733 15.2635 0.0156546 15.1466 0.0156546 15.0287C0.0156546 11.1752 0.0500978 7.3207 -1.35362e-06 3.46724C-0.0229635 1.7242 0.706605 0.51243 2.30456 -4.26311e-05H21.289C21.3662 0.798761 21.011 1.19816 20.2234 1.19816C15.5234 1.19816 10.8225 1.19816 6.12253 1.19816C5.58919 1.19816 5.5871 1.19921 5.5871 1.74195C5.5871 10.5563 5.5871 19.3716 5.5871 28.1859C5.5871 28.7276 5.58919 28.7297 6.12462 28.7297C10.3173 28.7297 14.51 28.7297 18.7026 28.7297C19.0888 28.7297 19.2823 28.9235 19.283 29.3111C19.283 29.428 19.2756 29.5459 19.283 29.6628C19.2997 29.9112 19.1901 30.026 18.9406 30.0156C18.8112 30.0104 18.6807 30.0156 18.5503 30.0156C13.4067 30.0156 8.26427 30.0208 3.12076 30.0104C2.45173 30.0094 1.92986 30.2348 1.5562 30.788C1.38503 31.0426 1.30049 31.3245 1.30153 31.6344C1.30466 32.3504 1.29423 33.0664 1.30258 33.7824C1.31301 34.751 1.981 35.466 2.95376 35.5109C3.69481 35.5443 4.43795 35.5119 5.18004 35.5234C5.47124 35.5276 5.48168 35.3553 5.48064 35.1414C5.47751 34.1258 5.49316 33.1103 5.47229 32.0947C5.46498 31.7284 5.59962 31.625 5.94719 31.625C12.4705 31.6313 18.9938 31.6324 25.5172 31.624C25.9002 31.624 26.0109 31.7628 26.0015 32.1281C25.9795 33.0017 26.0547 32.912 25.2239 32.912C21.1742 32.9141 17.1256 32.912 13.0759 32.913C12.5634 32.913 12.5624 32.9141 12.5624 33.4307C12.5624 33.9901 12.5791 34.5506 12.5561 35.1101C12.5425 35.4441 12.674 35.5276 12.9872 35.5255C15.1487 35.515 17.3103 35.5203 19.4708 35.5203C22.9861 35.5203 26.5014 35.5203 30.0177 35.5203C30.6534 35.5203 31.194 35.323 31.5833 34.798C31.7827 34.5298 31.8965 34.2302 31.8965 33.892C31.8965 32.5383 31.8944 31.1835 31.9038 29.8298C31.9059 29.5501 31.8359 29.5219 31.598 29.6514C31.1084 29.9175 30.573 30.0146 30.0177 30.0146C27.0097 30.0146 24.0027 30.0146 20.9947 30.0146C20.429 30.0146 20.4258 30.0094 20.4227 29.453C20.4227 29.3883 20.4227 29.3226 20.4227 29.2579C20.4269 28.7433 20.4394 28.7287 20.9467 28.7287C23.9547 28.7287 26.9627 28.7005 29.9697 28.7433C30.9957 28.7579 31.9205 28.0858 31.9152 26.8218C31.885 18.9187 31.8871 11.0155 31.9142 3.11132C31.9184 1.92877 31.0677 1.17937 29.9916 1.18877C27.6349 1.20964 25.2782 1.19503 22.9214 1.19503C22.3724 1.19503 22.3714 1.19294 22.3703 0.66064C22.3703 0.439369 22.3776 0.218097 22.3818 -0.00317383C25.2218 -4.26311e-05 28.0607 -4.26311e-05 30.8987 -4.26311e-05ZM6.70911 35.6601C6.70911 36.4534 6.71642 37.2476 6.70494 38.0409C6.70076 38.3112 6.76234 38.4511 7.05563 38.3331C8.3509 37.8102 9.64617 37.7768 10.9456 38.3227C11.1951 38.4271 11.2869 38.3154 11.2859 38.0482C11.2775 36.4607 11.2786 34.8742 11.2838 33.2867C11.2838 33.0289 11.2066 32.9099 10.9268 32.912C9.63887 32.9214 8.3509 32.9214 7.06294 32.912C6.78739 32.9099 6.70076 33.0143 6.70494 33.2804C6.71642 34.0736 6.70911 34.8679 6.70911 35.6612V35.6601Z" fill="black"/>
<path d="M18.712 8.02106C22.5519 8.02106 26.3908 8.02106 30.2307 8.02106C30.764 8.02106 30.7661 8.02315 30.7661 8.56485C30.7661 12.6124 30.7661 16.66 30.7661 20.7087C30.7661 21.2483 30.7598 21.2566 30.2234 21.2566C22.5446 21.2566 14.8648 21.2566 7.1861 21.2566C6.6611 21.2566 6.6538 21.2483 6.6538 20.741C6.6538 16.6673 6.65901 12.5937 6.64545 8.51997C6.6444 8.12335 6.76234 8.01271 7.15479 8.0148C11.0072 8.02837 14.8596 8.02315 18.712 8.02315V8.02106ZM18.6713 19.977C22.1083 19.977 25.5443 19.9708 28.9813 19.9854C29.3727 19.9875 29.4938 19.8799 29.4928 19.4812C29.4781 16.2405 29.4844 12.9986 29.4844 9.75679C29.4844 9.24745 29.4823 9.2464 28.9594 9.2464C22.0989 9.2464 15.2395 9.24953 8.37909 9.23805C7.98351 9.23805 7.87183 9.34451 7.87392 9.74113C7.88958 12.9819 7.88227 16.2238 7.88227 19.4656C7.88227 19.8058 8.05518 19.9763 8.401 19.977C11.8244 19.977 15.2479 19.977 18.6713 19.977Z" fill="black"/>
<path d="M27.6965 32.9152C27.2651 32.9152 27.0494 32.7044 27.0494 32.2827C27.0494 31.8492 27.2616 31.6324 27.686 31.6324C28.1105 31.6324 28.3272 31.8454 28.3363 32.2712C28.3453 32.6971 28.1324 32.9117 27.6975 32.9152H27.6965Z" fill="black"/>
<path d="M11.8839 12.4841C11.8255 12.2701 11.7399 12.0666 11.7169 11.8557C11.623 10.9884 12.3515 10.287 13.3713 10.3121C14.677 10.3444 15.633 11.0646 16.4607 11.9956C16.5599 12.1073 16.5484 12.2221 16.4419 12.3181C16.3302 12.4193 16.2384 12.34 16.1622 12.2607C15.8219 11.9069 15.4577 11.5854 15.0329 11.3318C14.5225 11.0281 13.9766 10.9049 13.3911 10.9863C12.7147 11.0802 12.3223 11.5353 12.3682 12.1334C12.387 12.3776 12.4872 12.5154 12.744 12.5112C12.839 12.5102 12.9339 12.5143 13.0289 12.5143C16.7383 12.5143 20.4478 12.5143 24.1561 12.5143C24.7824 12.5143 24.868 12.3901 24.6613 11.7879C24.4766 11.2504 24.1666 10.9759 23.724 10.956C23.1312 10.9299 22.8463 11.313 23.0404 11.8808C23.0968 12.0446 23.1761 12.2002 23.2491 12.3692C22.7001 12.3515 22.3213 11.9392 22.2973 11.3641C22.2753 10.8339 22.6219 10.43 23.1688 10.3715C24.0236 10.2797 24.5809 10.741 25.0214 11.3965C25.1884 11.6449 25.3001 11.9267 25.3627 12.221C25.4097 12.4444 25.514 12.5529 25.7541 12.5216C25.8449 12.5102 25.9472 12.5269 26.0338 12.5592C26.2217 12.6302 26.3031 12.8097 26.301 12.9819C26.2979 13.1969 26.085 13.1667 25.9534 13.152C25.5297 13.1061 25.4191 13.2909 25.4326 13.6937C25.4723 14.8471 25.4817 16.0014 25.49 17.1558C25.4911 17.3353 25.5808 17.6192 25.2708 17.6297C24.9776 17.6391 24.7584 17.5159 24.7646 17.1443C24.7834 15.9492 24.7719 14.7531 24.797 13.5581C24.8033 13.2794 24.75 13.1458 24.4536 13.1594C24.1958 13.1708 23.937 13.1698 23.6792 13.1594C23.3942 13.1468 23.3055 13.2825 23.2982 13.5528C23.2898 13.8868 23.4381 14.2855 23.2116 14.5402C22.9892 14.7907 22.5905 14.6018 22.2743 14.655C22.0739 14.6884 21.8683 14.702 21.67 14.7427C21.1398 14.8512 20.8684 15.1539 20.8726 15.6163C20.8767 16.0891 21.1794 16.4335 21.6856 16.541C21.8902 16.5849 22.0885 16.5577 22.2899 16.5087C22.4757 16.4638 22.578 16.4095 22.4997 16.1778C22.3922 15.8574 22.4935 15.5777 22.7993 15.4169C23.0821 15.2687 23.3608 15.323 23.5852 15.5474C23.8409 15.8042 23.9464 16.1455 23.7282 16.4346C23.4882 16.754 23.6019 16.9304 23.8044 17.1902C24.2574 17.7706 24.2115 18.2789 23.7522 18.7141C23.4151 19.0345 23.2439 18.7026 23.0404 18.5513C22.793 18.3676 23.0289 18.258 23.1395 18.1421C23.3629 17.9094 23.4861 17.6568 23.3337 17.3343C23.2283 17.1109 23.103 17.0222 22.8233 17.0974C21.3569 17.4908 20.1159 16.4544 20.1806 15.2082C20.1837 15.155 20.19 15.0663 20.1639 15.0537C19.8695 14.9066 19.5564 14.9869 19.2516 15.0057C19.0554 15.0182 18.9907 15.1675 18.9938 15.3554C18.9959 15.4764 18.9918 15.6027 18.9625 15.7186C18.8738 16.0661 18.6097 16.157 18.3133 15.9513C18.2799 15.9284 18.2476 15.9023 18.2194 15.8731C17.9334 15.5787 17.5879 15.2708 17.7424 14.8241C17.8958 14.3805 18.3561 14.3795 18.7475 14.3628C19.2078 14.3429 19.6712 14.344 20.1305 14.415C20.3037 14.4421 20.4822 14.4703 20.6419 14.3544C21.1084 14.0183 21.647 13.962 22.196 13.9766C22.5175 13.9849 22.7043 13.9192 22.7001 13.532C22.696 13.1604 22.4872 13.1573 22.2221 13.1583C20.5375 13.1614 18.8529 13.1687 17.1684 13.1541C16.8072 13.151 16.6966 13.2773 16.706 13.629C16.73 14.5621 16.7822 14.4588 15.8867 14.464C15.5067 14.4661 15.1247 14.4546 14.7552 14.5726C14.5214 14.6477 14.3357 14.7751 14.2814 15.0287C14.2428 15.2082 14.2553 15.3982 14.4119 15.514C14.5548 15.6205 14.6624 15.4629 14.7678 15.3971C15.1769 15.1404 15.6215 15.0485 16.0944 15.1049C16.6475 15.1706 17.1151 15.6487 17.1944 16.2112C17.255 16.6475 16.968 17.0859 16.4638 17.3259C16.2259 17.4397 15.8199 17.2299 15.7677 16.97C15.7364 16.8166 15.8606 16.7905 15.9493 16.7404C16.1507 16.6277 16.3636 16.5296 16.5202 16.3542C16.7498 16.0954 16.6841 15.8731 16.3574 15.776C15.8219 15.6173 14.9212 16.0703 14.7281 16.5964C14.5809 16.9961 14.7239 17.4105 15.1206 17.6996C15.6445 18.0806 16.2634 18.1776 16.8813 18.2851C17.0222 18.3102 17.3239 18.2152 17.2445 18.5054C17.184 18.7245 17.0661 19.0418 16.7122 18.9364C16.0484 18.7391 15.3825 18.5398 14.8231 18.1025C14.1833 17.6015 13.8263 16.993 14.1071 16.1549C14.1624 15.9889 14.104 15.8731 14.0017 15.7489C13.891 15.6132 13.7814 15.4691 13.7052 15.3126C13.4088 14.6947 13.6906 14.0904 14.3534 13.9098C14.7918 13.7908 15.2416 13.7981 15.6894 13.8033C15.9201 13.8065 16.087 13.7616 16.0902 13.4735C16.0933 13.1687 15.9023 13.1604 15.6831 13.1604C14.773 13.1614 13.8629 13.1698 12.9527 13.1552C12.6521 13.15 12.5947 13.2752 12.5978 13.5455C12.6125 14.7542 12.6114 15.9639 12.6041 17.1735C12.6031 17.3499 12.698 17.6359 12.3724 17.6317C12.0729 17.6276 11.8578 17.4981 11.8881 17.1276C11.982 15.9618 11.9111 14.7918 11.9413 13.6249C11.9497 13.3107 11.8735 13.128 11.5186 13.152C11.3589 13.1625 11.2368 13.0832 11.1523 12.9391C10.9884 12.6604 11.0406 12.5529 11.3621 12.5185C11.5332 12.4997 11.7117 12.5623 11.8829 12.4841H11.8839Z" fill="black"/>
</g>
<defs>
<clipPath id="clip0_195_834">
<rect width="33.1876" height="40" fill="white"/>
</clipPath>
</defs>
</svg>
